<svg xmlns="http://www.w3.org/2000/svg" width="1200" height="400" viewBox="0 0 1200 400"><rect width="100%" height="100%" fill="#DDDDDD"/><path fill="#999999" d="M276.73 245.295h24.34q6.71 0 11.28-1.62 4.56-1.61 7.29-4.29 2.73-2.69 3.94-6.27t1.21-7.6q0-4.21-1.34-7.57-1.35-3.35-4.21-5.73-2.86-2.37-7.38-3.62t-10.88-1.25h-24.25zm20.49-92.01h-20.49v37.41h19.15q12.35 0 18.66-4.47 6.31-4.48 6.31-14.24 0-10.11-5.73-14.4-5.73-4.3-17.9-4.3m-44.57-18.62h44.57q12.71 0 21.75 2.42t14.81 6.89q5.78 4.48 8.46 10.83 2.69 6.36 2.69 14.32 0 4.57-1.35 8.73-1.34 4.16-4.16 7.78-2.82 3.63-7.16 6.58-4.34 2.96-10.34 5.01 26.68 6 26.68 28.82 0 8.24-3.14 15.22-3.13 6.98-9.13 12.04-5.99 5.05-14.76 7.92-8.77 2.86-20.05 2.86h-48.87zm162.89 105.7v-15.48q-9.58.45-16.11 1.65-6.53 1.21-10.47 3.09t-5.64 4.39q-1.7 2.5-1.7 5.46 0 5.82 3.45 8.32 3.44 2.51 8.99 2.51 6.8 0 11.77-2.46 4.97-2.47 9.71-7.48m-46.72-48.24-3.94-7.07q15.85-14.5 38.13-14.5 8.06 0 14.41 2.64 6.36 2.64 10.74 7.34 4.39 4.7 6.67 11.23 2.28 6.54 2.28 14.32v58h-10.02q-3.14 0-4.84-.94t-2.68-3.8l-1.97-6.63q-3.49 3.14-6.8 5.51t-6.89 3.98-7.66 2.46q-4.07.85-8.99.85-5.82 0-10.74-1.56-4.92-1.57-8.5-4.7-3.58-3.14-5.55-7.79t-1.97-10.83q0-3.49 1.16-6.94 1.17-3.44 3.81-6.57 2.64-3.14 6.84-5.91 4.21-2.77 10.34-4.83t14.28-3.36q8.14-1.3 18.61-1.57v-5.37q0-9.21-3.94-13.64-3.93-4.44-11.36-4.44-5.37 0-8.91 1.26-3.53 1.25-6.22 2.82-2.68 1.56-4.88 2.82-2.19 1.25-4.87 1.25-2.33 0-3.94-1.21t-2.6-2.82m108.21-15.84 1.52 7.25q2.77-2.77 5.86-5.15 3.09-2.37 6.54-4.02 3.44-1.66 7.38-2.6t8.59-.94q7.52 0 13.34 2.55 5.81 2.55 9.71 7.16 3.89 4.61 5.9 11.01 2.02 6.4 2.02 14.1v58.44h-22.11v-58.44q0-8.42-3.85-13.03t-11.72-4.61q-5.73 0-10.74 2.6t-9.49 7.07v66.41h-22.11v-91.83h13.52q4.3 0 5.64 4.03m100.95 0 1.53 7.25q2.77-2.77 5.86-5.15 3.09-2.37 6.53-4.02 3.45-1.66 7.38-2.6 3.94-.94 8.6-.94 7.51 0 13.33 2.55t9.71 7.16q3.9 4.61 5.91 11.01t2.01 14.1v58.44h-22.1v-58.44q0-8.42-3.85-13.03t-11.73-4.61q-5.72 0-10.74 2.6-5.01 2.6-9.48 7.07v66.41h-22.11v-91.83h13.52q4.29 0 5.63 4.03m99.26 31.33h41.71q0-4.3-1.21-8.1-1.21-3.81-3.63-6.67-2.41-2.87-6.13-4.52-3.71-1.66-8.63-1.66-9.58 0-15.08 5.46-5.51 5.46-7.03 15.49m56.38 13.33h-56.83q.54 7.07 2.51 12.22 1.97 5.14 5.19 8.5t7.65 5.01q4.43 1.66 9.8 1.66t9.26-1.25q3.9-1.26 6.81-2.78t5.1-2.77q2.19-1.26 4.25-1.26 2.77 0 4.12 2.06l6.35 8.06q-3.67 4.29-8.23 7.2-4.57 2.91-9.53 4.66-4.97 1.74-10.12 2.46-5.14.71-9.98.71-9.57 0-17.81-3.17-8.23-3.18-14.32-9.4-6.08-6.22-9.57-15.4-3.5-9.17-3.5-21.25 0-9.4 3.05-17.68 3.04-8.28 8.72-14.41 5.69-6.13 13.88-9.71t18.48-3.58q8.68 0 16.02 2.78 7.34 2.77 12.62 8.1 5.28 5.32 8.28 13.06t3 17.68q0 5.01-1.08 6.76-1.07 1.74-4.12 1.74m41.26-43.14 1.35 10.38q4.29-8.23 10.2-12.93t13.96-4.7q6.36 0 10.2 2.78l-1.43 16.55q-.45 1.62-1.3 2.29t-2.28.67q-1.34 0-3.98-.45t-5.15-.45q-3.67 0-6.53 1.08-2.86 1.07-5.15 3.08-2.28 2.02-4.02 4.88-1.75 2.87-3.27 6.54v56.56h-22.11v-91.83h12.98q3.4 0 4.74 1.21 1.35 1.21 1.79 4.34m149.2 69.72h23.27v16.56h-71.6v-16.56h26.22v-75.45q0-4.47.27-9.21l-18.61 15.57q-1.61 1.25-3.18 1.56-1.57.32-2.95.05-1.39-.27-2.47-.94-1.07-.67-1.61-1.48l-6.98-9.57 39.47-33.57h18.17z"/></svg>