<?xml version="1.0" standalone="no"?>
<!DOCTYPE svg PUBLIC "-//W3C//DTD SVG 20010904//EN"
 "http://www.w3.org/TR/2001/REC-SVG-20010904/DTD/svg10.dtd">
<svg version="1.0" xmlns="http://www.w3.org/2000/svg"
 width="1280.000000pt" height="640.000000pt" viewBox="0 0 1280.000000 640.000000"
 preserveAspectRatio="xMidYMid meet">
<metadata>
Created by potrace 1.15, written by Peter Selinger 2001-2017
</metadata>
<g transform="translate(0.000000,640.000000) scale(0.100000,-0.100000)"
fill="#000000" stroke="none">
<path d="M2466 6121 l-100 -169 -80 -24 c-146 -45 -577 -175 -756 -228 -379
-112 -711 -228 -1012 -354 -184 -76 -506 -225 -513 -237 -7 -10 47 -268 92
-444 93 -365 211 -611 381 -795 l60 -65 113 57 c249 125 405 167 717 193 l82
7 0 -1874 0 -1874 138 -32 c498 -113 905 -156 1472 -156 576 0 1056 46 1668
161 l142 27 0 1874 0 1874 23 -6 c12 -4 119 -22 237 -41 226 -36 290 -50 381
-84 62 -23 155 -77 211 -122 20 -16 41 -29 46 -29 13 0 100 94 151 163 126
172 206 388 300 812 22 99 47 206 56 238 8 32 15 64 15 72 0 18 -153 108 -360
211 -332 165 -523 236 -1100 404 -439 128 -554 165 -759 243 l-133 50 -105
158 c-90 134 -109 158 -127 154 -82 -19 -352 -36 -561 -36 -208 0 -481 18
-560 37 -17 4 -36 -22 -119 -165z"/>
<path d="M8974 6123 l-99 -167 -120 -39 c-66 -21 -208 -65 -315 -97 -107 -32
-295 -88 -417 -124 -420 -125 -727 -234 -1050 -372 -143 -61 -447 -200 -462
-211 -15 -11 108 -532 164 -693 78 -225 184 -413 304 -542 l67 -72 100 51
c215 110 386 161 624 188 74 8 147 15 163 15 l27 0 0 -1873 0 -1874 138 -31
c294 -67 572 -110 887 -138 236 -22 893 -25 1120 -6 456 39 691 70 1178 158
l97 17 0 1874 0 1873 28 -6 c15 -3 34 -8 42 -10 8 -2 94 -15 190 -29 297 -44
442 -94 579 -199 l60 -46 61 69 c86 96 134 169 196 296 80 166 111 273 213
720 23 99 44 190 47 201 5 19 -9 30 -108 86 -262 151 -570 290 -854 387 -82
28 -306 96 -499 151 -374 108 -528 157 -750 240 l-140 52 -105 159 c-96 145
-107 158 -130 154 -183 -37 -682 -47 -945 -20 -82 8 -160 17 -171 20 -19 4
-35 -17 -120 -162z"/>
</g>
</svg>
